<?xml version="1.0" encoding="utf-8"?>
<!-- Generator: Adobe Illustrator 16.0.0, SVG Export Plug-In . SVG Version: 6.00 Build 0)  -->
<!DOCTYPE svg PUBLIC "-//W3C//DTD SVG 1.1//EN" "http://www.w3.org/Graphics/SVG/1.1/DTD/svg11.dtd">
<svg version="1.1" id="Layer_1" xmlns="http://www.w3.org/2000/svg" xmlns:xlink="http://www.w3.org/1999/xlink" x="0px" y="0px"
	 width="180px" height="180px" viewBox="0 0 180 180" enable-background="new 0 0 180 180" xml:space="preserve">
<g>
	<g>
		<path fill-rule="evenodd" clip-rule="evenodd" fill="#00AEEF" stroke="#000000" stroke-miterlimit="10" d="M178.604,89.65
			c0.176,48.66-39.61,88.61-88.387,88.756c-48.923,0.146-89.027-39.938-88.82-88.771C1.605,40.812,40.868,1.402,89.551,1.155
			C138.597,0.908,178.423,40.484,178.604,89.65z M89.855,10.98c-43.537,0.14-79.16,35.87-78.811,79.042
			c0.353,43.573,35.928,78.788,79.339,78.537c43.321-0.25,78.632-35.681,78.575-78.84C168.896,46.294,133.283,10.84,89.855,10.98z"
			/>
		<path fill-rule="evenodd" clip-rule="evenodd" fill="#00AEEF" stroke="#000000" stroke-miterlimit="10" d="M99.023,71.967
			c-8.987-3.64-16.565-3.235-23.138,4.685c-2.626-7.724-8.971-11.166-14.835-15.134c-8.614-5.83-11.875-14.2-8.785-22.403
			c3.473-9.217,12.13-14.168,22.352-12.774c17.715,2.413,28.413,17.224,26.08,36.19C100.325,65.532,99.646,68.496,99.023,71.967z"/>
		<path fill-rule="evenodd" clip-rule="evenodd" fill="#00AEEF" stroke="#000000" stroke-miterlimit="10" d="M109.003,85.648
			c5.44-1.631,10.464-3.02,15.413-4.659c4.171-1.385,8.136-3.651,12.393-4.47c6.858-1.32,12.673,1.184,16.732,7.022
			c4.247,6.107,5.154,12.744,2.04,19.555c-6.209,13.55-20.406,19.86-34.78,15.68c-7.31-2.13-14.332-6.601-19.435-12.38
			C110.253,97.432,111.121,94.903,109.003,85.648z"/>
		<path fill-rule="evenodd" clip-rule="evenodd" fill="#00AEEF" stroke="#000000" stroke-miterlimit="10" d="M70.144,91.527
			c1.216,8.905,5.367,15.463,15.642,16.958c-5.619,6.328-5.276,13.563-5.828,20.509c-0.806,10.126-5.931,16.913-14.536,18.758
			c-8.748,1.879-17.435-2.644-21.891-11.401c-5.868-11.505-4.002-24.126,4.95-33.486C54.067,97.018,63.144,92.229,70.144,91.527z"/>
		<path fill-rule="evenodd" clip-rule="evenodd" fill="#00AEEF" stroke="#000000" stroke-miterlimit="10" d="M89.915,101.229
			c-6.083-0.037-11.467-5.396-11.489-11.431c-0.024-6.219,5.57-11.618,11.888-11.481c6.076,0.134,11.379,5.628,11.249,11.65
			C101.429,96.046,96.03,101.266,89.915,101.229z"/>
	</g>
	<g id="Livello_66">
		<path fill="#27AAE1" d="M124.714,135.195L124.714,135.195l-4.825-1.406l3.493-2.196c0.736-0.464,0.989-1.49,0.563-2.291
			c-0.425-0.804-1.366-1.076-2.104-0.615l-3.503,2.204l1.297-5.271c0.221-0.895-0.269-1.814-1.089-2.053
			c-0.823-0.24-1.669,0.29-1.887,1.185l-2.096,8.513l-7.173,4.505l-0.022-0.015h-0.002v-7.076l5.723-6.231
			c0.6-0.657,0.6-1.718-0.003-2.373c-0.6-0.654-1.577-0.654-2.177,0l-3.543,3.858v-4.403c0-0.928-0.689-1.679-1.543-1.679
			c-0.851,0-1.54,0.751-1.54,1.679v4.391l-3.533-3.846c-0.6-0.654-1.576-0.654-2.177,0c-0.604,0.655-0.603,1.716,0,2.373l5.71,6.219
			v7.119l-0.015-0.03l-0.022,0.015l-7.171-4.508l-2.092-8.512c-0.219-0.896-1.066-1.426-1.885-1.186
			c-0.823,0.241-1.311,1.161-1.09,2.054l1.298,5.271l-3.505-2.202c-0.737-0.464-1.68-0.188-2.105,0.612
			c-0.425,0.804-0.172,1.83,0.564,2.291l3.494,2.197l-4.827,1.408c-0.822,0.24-1.309,1.16-1.088,2.056
			c0.221,0.895,1.065,1.426,1.887,1.185l7.802-2.275l5.639,3.543l-5.644,3.548l-7.799-2.276c-0.823-0.24-1.666,0.291-1.886,1.186
			c-0.222,0.896,0.267,1.815,1.087,2.056l4.826,1.408l-3.495,2.194c-0.736,0.464-0.989,1.49-0.564,2.294
			c0.424,0.801,1.367,1.076,2.105,0.612l3.503-2.202l-1.297,5.27c-0.221,0.895,0.268,1.814,1.089,2.056
			c0.82,0.24,1.666-0.293,1.887-1.188l2.095-8.51l7.171-4.51l0.022,0.018l0.013-0.025v0.025h0.005v7.076l-5.723,6.231
			c-0.601,0.654-0.601,1.718,0,2.373c0.6,0.654,1.577,0.654,2.177,0l3.546-3.858v4.403c0,0.928,0.689,1.679,1.54,1.679
			s1.54-0.751,1.54-1.679l0.002-4.391l3.531,3.846c0.603,0.654,1.576,0.654,2.179,0c0.601-0.655,0.601-1.719,0-2.373l-5.712-6.219
			v-7.094l0.005,0.005l0.02-0.013l7.171,4.505l2.093,8.513c0.221,0.896,1.066,1.426,1.887,1.186c0.82-0.238,1.31-1.158,1.089-2.054
			l-1.297-5.271l3.503,2.202c0.736,0.464,1.682,0.188,2.105-0.612c0.424-0.804,0.174-1.827-0.562-2.291l-3.494-2.197l4.825-1.408
			l0,0c0.821-0.238,1.31-1.158,1.089-2.053c-0.221-0.896-1.066-1.426-1.887-1.186l-7.801,2.276l-5.639-3.546l5.641-3.546
			l7.801,2.276l0,0c0.823,0.24,1.666-0.29,1.887-1.186C126.022,136.355,125.534,135.436,124.714,135.195"/>
	</g>
	<g id="Livello_66_1_">
		<path fill="#27AAE1" d="M144.748,46.871L144.748,46.871l-4.825-1.406l3.494-2.197c0.736-0.464,0.989-1.49,0.562-2.292
			c-0.424-0.803-1.366-1.076-2.103-0.615l-3.504,2.204l1.297-5.271c0.221-0.895-0.268-1.815-1.088-2.053
			c-0.823-0.241-1.669,0.29-1.888,1.185l-2.095,8.512l-7.174,4.505l-0.021-0.015h-0.003v-7.077l5.723-6.231
			c0.601-0.657,0.601-1.719-0.002-2.373c-0.601-0.655-1.577-0.655-2.178,0l-3.543,3.858v-4.403c0-0.928-0.689-1.679-1.542-1.679
			c-0.851,0-1.54,0.751-1.54,1.679v4.391l-3.533-3.846c-0.601-0.655-1.577-0.655-2.177,0c-0.605,0.654-0.603,1.716,0,2.373
			l5.71,6.218v7.119l-0.015-0.029l-0.022,0.015l-7.171-4.508l-2.093-8.512c-0.218-0.895-1.066-1.426-1.885-1.185
			c-0.823,0.24-1.309,1.16-1.091,2.053l1.3,5.271l-3.507-2.202c-0.736-0.464-1.679-0.188-2.103,0.612
			c-0.426,0.804-0.173,1.83,0.563,2.291l3.493,2.197l-4.825,1.408c-0.823,0.241-1.309,1.161-1.091,2.056
			c0.224,0.895,1.066,1.426,1.89,1.185l7.801-2.276l5.638,3.543l-5.644,3.548l-7.8-2.276c-0.823-0.241-1.667,0.29-1.885,1.185
			c-0.224,0.895,0.268,1.815,1.086,2.056l4.828,1.408l-3.494,2.194c-0.739,0.464-0.991,1.49-0.565,2.294
			c0.424,0.801,1.369,1.076,2.105,0.612l3.504-2.202l-1.297,5.269c-0.221,0.895,0.268,1.815,1.088,2.055
			c0.821,0.241,1.666-0.292,1.887-1.188l2.096-8.51l7.171-4.51l0.022,0.017l0.012-0.024v0.024h0.005v7.077l-5.723,6.231
			c-0.6,0.655-0.6,1.719,0,2.373c0.601,0.655,1.577,0.655,2.178,0l3.545-3.858v4.403c0,0.928,0.689,1.679,1.54,1.679
			s1.54-0.751,1.54-1.679l0.003-4.391l3.53,3.846c0.603,0.655,1.577,0.655,2.18,0c0.6-0.654,0.6-1.718,0-2.373l-5.713-6.218v-7.094
			l0.005,0.005l0.02-0.012l7.171,4.505l2.093,8.512c0.221,0.895,1.066,1.426,1.887,1.185c0.821-0.238,1.31-1.158,1.089-2.053
			l-1.297-5.271l3.504,2.202c0.736,0.464,1.681,0.188,2.104-0.612c0.425-0.804,0.174-1.828-0.562-2.291l-3.493-2.197l4.825-1.408
			l0,0c0.82-0.238,1.309-1.158,1.088-2.053c-0.221-0.895-1.066-1.426-1.887-1.185l-7.801,2.276l-5.639-3.546l5.642-3.546
			l7.801,2.276l0,0c0.822,0.241,1.666-0.29,1.887-1.185C146.058,48.031,145.568,47.111,144.748,46.871"/>
	</g>
	<g id="Livello_66_2_">
		<path fill="#27AAE1" d="M59.049,73.806L59.049,73.806l-4.825-1.408l3.494-2.197c0.736-0.461,0.989-1.488,0.563-2.292
			c-0.424-0.803-1.366-1.076-2.103-0.615l-3.504,2.207l1.297-5.271c0.221-0.898-0.268-1.815-1.088-2.053
			c-0.823-0.243-1.669,0.288-1.887,1.185l-2.095,8.51l-7.173,4.508l-0.022-0.015h-0.002v-7.077l5.723-6.233
			c0.6-0.655,0.6-1.716-0.002-2.371c-0.6-0.655-1.577-0.655-2.177,0l-3.543,3.858v-4.403c0-0.927-0.689-1.681-1.542-1.681
			c-0.851,0-1.54,0.754-1.54,1.681v4.389l-3.534-3.843c-0.6-0.655-1.577-0.655-2.177,0c-0.605,0.655-0.603,1.716,0,2.371l5.71,6.218
			v7.122l-0.015-0.03l-0.022,0.015l-7.17-4.508l-2.093-8.515c-0.218-0.893-1.066-1.423-1.885-1.185
			c-0.823,0.243-1.309,1.16-1.091,2.053l1.299,5.271l-3.506-2.202c-0.737-0.461-1.679-0.188-2.103,0.615
			c-0.426,0.804-0.173,1.83,0.563,2.292l3.494,2.197l-4.825,1.408c-0.823,0.238-1.309,1.161-1.091,2.053
			c0.223,0.897,1.066,1.428,1.889,1.185l7.801-2.276l5.639,3.546l-5.644,3.546l-7.801-2.276c-0.823-0.238-1.666,0.292-1.884,1.185
			c-0.223,0.898,0.268,1.815,1.086,2.058l4.828,1.409l-3.494,2.192c-0.739,0.466-0.992,1.493-0.565,2.296
			c0.424,0.798,1.369,1.076,2.105,0.61l3.503-2.202l-1.297,5.271c-0.221,0.892,0.268,1.813,1.088,2.052
			c0.821,0.243,1.667-0.293,1.887-1.186l2.095-8.508l7.17-4.513l0.022,0.02l0.013-0.025v0.025h0.005v7.076L32.9,93.571
			c-0.6,0.654-0.6,1.721,0,2.375c0.6,0.655,1.577,0.655,2.177,0l3.546-3.856v4.402c0,0.928,0.689,1.676,1.54,1.676
			s1.54-0.748,1.54-1.676l0.002-4.393l3.531,3.847c0.603,0.655,1.577,0.655,2.18,0c0.6-0.654,0.6-1.721,0-2.375l-5.713-6.217v-7.091
			l0.005,0.005l0.02-0.015l7.17,4.508l2.093,8.508c0.221,0.897,1.066,1.429,1.887,1.186c0.82-0.238,1.309-1.155,1.088-2.052
			l-1.297-5.271l3.503,2.202c0.737,0.466,1.681,0.188,2.105-0.61c0.424-0.803,0.173-1.83-0.563-2.291l-3.494-2.197l4.825-1.409l0,0
			c0.821-0.238,1.309-1.16,1.088-2.053c-0.221-0.898-1.066-1.428-1.887-1.186l-7.801,2.276l-5.638-3.546l5.641-3.545l7.801,2.276
			l0,0c0.823,0.238,1.666-0.292,1.887-1.185C60.358,74.966,59.87,74.044,59.049,73.806"/>
	</g>
</g>
</svg>
