<?xml version="1.0" encoding="utf-8"?>
<!-- Generator: Adobe Illustrator 16.0.0, SVG Export Plug-In . SVG Version: 6.00 Build 0)  -->
<!DOCTYPE svg PUBLIC "-//W3C//DTD SVG 1.1//EN" "http://www.w3.org/Graphics/SVG/1.1/DTD/svg11.dtd">
<svg version="1.1" id="Layer_1" xmlns="http://www.w3.org/2000/svg" xmlns:xlink="http://www.w3.org/1999/xlink" x="0px" y="0px"
	 width="180px" height="180px" viewBox="0 0 180 180" enable-background="new 0 0 180 180" xml:space="preserve">
<g>
	<path fill="#2BB673" stroke="#000000" stroke-miterlimit="10" d="M149.534,94.776l-17.346-37.346
		c-0.196-0.413-0.456-0.797-0.786-1.119c-0.332-0.321-0.703-0.556-1.09-0.705l-20.338-7.85c-1.418-0.546-2.935-0.84-4.516-0.824
		c-1.577,0.018-3.087,0.343-4.498,0.919l-15.432,6.321c-1.086,0.447-2.164,0.959-3.228,1.543c-0.355,0.197-0.705,0.411-1.052,0.621
		c-1.165-0.678-2.381-1.275-3.65-1.783c-4.048-1.625-8.194-2.173-12.206-1.805l-10.382,0.956c-0.452,0.042-0.908,0.192-1.334,0.461
		c-0.426,0.269-0.778,0.633-1.054,1.053L29.245,90.956c-0.481,0.733-0.739,1.667-0.66,2.656c0.077,0.988,0.473,1.854,1.058,2.478
		l10.168,10.821c-0.558,1.096-0.911,2.326-0.992,3.645c-0.147,2.368,0.577,4.653,2.032,6.437c1.457,1.781,3.471,2.85,5.677,3.005
		c0.118,0.008,0.237,0.008,0.356,0.014c-0.904,3.139-0.165,6.703,2.191,9.097c1.41,1.433,3.217,2.269,5.138,2.401
		c-1.238,3.295-0.568,7.223,1.96,9.791c1.542,1.571,3.559,2.434,5.686,2.434c2.213,0,4.277-0.929,5.837-2.604
		c0.58,4.023,3.692,7.229,7.627,7.506c0.182,0.013,0.367,0.021,0.548,0.021c1.006,0,1.969-0.204,2.865-0.562
		c1.464,1.048,3.209,1.625,5.066,1.545c2.282-0.103,4.329-1.185,5.86-2.876l-5.592-5.992c0.013-0.139,0.037-0.271,0.042-0.415
		c0.073-1.177-0.078-2.315-0.404-3.373l11.445,12.259c1.444,0.632,3.017,0.947,4.654,0.876c3.275-0.144,6.192-1.805,8.259-4.374
		l1.146-1.428c0.104-0.134,0.188-0.286,0.257-0.449l-17.621-18.871c-0.455-0.484-0.491-1.286-0.089-1.792
		c0.405-0.504,1.105-0.521,1.556-0.038l20.958,22.442c1.142,0.431,2.364,0.64,3.635,0.584c2.88-0.125,5.449-1.587,7.266-3.85
		l2.767-3.441c0.635-0.793,1.013-1.862,0.979-3.027l-18.392-19.689c-0.448-0.483-0.489-1.29-0.087-1.791
		c0.407-0.504,1.105-0.522,1.556-0.038l18.478,19.785c0.759,0.217,1.556,0.323,2.373,0.288c2.362-0.103,4.461-1.298,5.948-3.152
		l0.743-0.925c1.488-1.85,2.365-4.354,2.275-7.08c-0.089-2.724-1.124-5.145-2.728-6.862l-4.933-5.281l1.246,1.332l13.338-12.933
		c0.566-0.546,0.978-1.312,1.128-2.213C150.016,96.414,149.882,95.526,149.534,94.776z M46.759,116.166
		c-1.25-0.087-2.395-0.691-3.222-1.705c-0.828-1.011-1.236-2.309-1.153-3.654c0.159-2.642,2.218-4.71,4.677-4.71
		c0.104,0,0.211,0.003,0.314,0.009c1.251,0.089,2.395,0.695,3.223,1.708c0.827,1.013,1.236,2.31,1.155,3.655
		C51.582,114.222,49.354,116.354,46.759,116.166z M54.756,127.698c-1.205,0-2.35-0.487-3.225-1.377
		c-1.857-1.884-1.958-5.061-0.234-7.069c0.089-0.1,1.921-2.181,2.799-3.173l0.461-0.527c0.896-1.015,2.107-1.575,3.41-1.575
		c1.206,0,2.353,0.49,3.226,1.382c0.912,0.925,1.434,2.174,1.468,3.521c0.034,1.344-0.422,2.624-1.283,3.601l-1.306,1.483
		c-0.279,0.314-0.58,0.655-0.886,1.003c-0.049,0.06-0.103,0.118-0.149,0.172c-0.229,0.258-0.43,0.485-0.586,0.661
		c-0.089,0.104-0.178,0.206-0.271,0.308c-0.023,0.025-0.041,0.047-0.042,0.051C57.248,127.152,56.045,127.698,54.756,127.698z
		 M65.236,138.354c-0.892,0.995-2.091,1.541-3.379,1.541c-1.206,0-2.354-0.49-3.226-1.381c-1.856-1.885-1.958-5.061-0.239-7.06
		c0.04-0.047,1.116-1.27,2.334-2.651c0-0.001,0-0.001,0-0.001l0.905-1.025c1.585-1.803,2.105-2.388,2.28-2.592
		c0.02-0.02,0.044-0.043,0.061-0.064l0,0l0.003-0.003c0.153-0.177,0.242-0.275,0.245-0.278c0.895-1.016,2.107-1.577,3.411-1.577
		c1.206,0,2.35,0.489,3.226,1.381c0.911,0.926,1.431,2.177,1.465,3.521c0.035,1.348-0.422,2.628-1.286,3.607
		C70.953,131.868,65.417,138.147,65.236,138.354z M75.557,144.809c-2.583-0.184-4.547-2.589-4.376-5.36
		c0.162-2.643,2.213-4.712,4.676-4.712c0.104,0,0.21,0.003,0.314,0.011c2.582,0.183,4.546,2.588,4.378,5.359
		C80.38,142.857,78.155,144.991,75.557,144.809z M132.945,109.832L96.409,70.717l0,0l0.412-1.117
		c0.213-0.583,0.187-1.271-0.127-1.85c-0.312-0.577-0.835-0.913-1.384-0.944l-2.716-0.175l0,0l-2.966-0.188l-0.225,3.775
		c-0.003,0.079-0.591,8.665-4.668,16.422c-4.18,7.962-9.719,10.706-10.562,10.882c-0.943,0.197-1.932,0.384-2.754,0.384
		c-0.565,0-1-0.085-1.372-0.269l-1.387-0.69c-0.581-0.289-1.025-0.82-1.259-1.498c-0.228-0.654-0.226-1.369,0-2.021L81.296,60.68
		l2.363-1.671l0.951-0.389h-0.001l17.465-7.153c1.097-0.449,2.247-0.684,3.415-0.695l0.097-0.001c1.133,0,2.256,0.21,3.33,0.626
		l20.34,7.849l17.348,37.344L132.945,109.832z"/>
	<path fill="#2BB673" stroke="#000000" stroke-miterlimit="10" d="M152.713,33.58l-13.73,7.351
		c-1.976,1.061-3.576,2.928-4.333,5.354c-0.756,2.427-0.522,4.953,0.46,7.078l17.978,38.702c0.986,2.119,2.725,3.842,4.988,4.651
		c2.258,0.812,4.608,0.564,6.587-0.494l13.729-7.356L152.713,33.58z M164.628,88.889c-1.823,0-3.309-1.588-3.309-3.549
		c0-1.962,1.485-3.554,3.309-3.554c1.826,0,3.31,1.591,3.31,3.554C167.938,87.301,166.454,88.889,164.628,88.889z"/>
	<path fill="#2BB673" stroke="#000000" stroke-miterlimit="10" d="M1.609,80.427l12.553,9.47c1.807,1.365,4.099,1.987,6.446,1.546
		c2.35-0.439,4.307-1.862,5.575-3.801l23.152-35.391c1.272-1.938,1.851-4.403,1.441-6.922c-0.413-2.522-1.731-4.625-3.54-5.99
		l-12.555-9.468L1.609,80.427z M12.437,78.61c0.272-1.939,1.958-3.275,3.762-2.984c1.808,0.293,3.05,2.104,2.78,4.043
		c-0.273,1.942-1.957,3.277-3.764,2.982C13.407,82.361,12.164,80.552,12.437,78.61z"/>
</g>
</svg>
